<svg xmlns="http://www.w3.org/2000/svg" viewBox="0 0 285.3 131.26"><defs><style>.cls-1{fill:#6b9a40;}.cls-2{fill:#ed6f25;}</style></defs><title>LogoName</title><g id="Layer_2" data-name="Layer 2"><g id="Layer_1-2" data-name="Layer 1"><path class="cls-1" d="M146.05,112.28c0,.72-.43,1.12-1.3,1.22a46.36,46.36,0,0,1-5.86,0,32.77,32.77,0,0,1-6.63-.57,4.89,4.89,0,0,1-2.44-2.24c-.3-.51-.94-1.83-1.9-4l-9.53-20.49L117,88.13v14.1a30.06,30.06,0,0,1-.3,4.19,9,9,0,0,1-1.57,3.92,5.21,5.21,0,0,1-2.66,2.21,27.38,27.38,0,0,1-5.3.65,28.82,28.82,0,0,1-4.34,0c-.91-.15-1.37-.56-1.37-1.22a6.17,6.17,0,0,1,1.26-2A7.2,7.2,0,0,0,104,105.5V66a45.9,45.9,0,0,0-.15-4.72,2.68,2.68,0,0,0-1.14-2.06c-1-.61-1.53-1.29-1.53-2q0-1.83,2.82-1.38a35.75,35.75,0,0,0,6.63.46,32.52,32.52,0,0,0,6.4-.46c1.88-.35,2.82.06,2.82,1.22,0,.77-.56,1.55-1.68,2.37a3.24,3.24,0,0,0-1.06,2.13c0,.51-.08,2-.08,4.49v12.8l13-15.39q1.83-2.2,1.83-3.12a1.58,1.58,0,0,0-.76-1.3c-1-.71-1.45-1.34-1.45-1.9,0-1.22.86-1.68,2.59-1.37a37.1,37.1,0,0,0,10-.15c1.68-.16,2.51.27,2.51,1.28a2,2,0,0,1-1.15,2c-.56.31-1.1.61-1.61.91a8.68,8.68,0,0,0-2.15,1.82L127.07,76.92l14.1,28.5a22.29,22.29,0,0,0,3.43,5C145.62,111.55,146.1,112.18,146.05,112.28Z"/><path class="cls-1" d="M182.08,93.32a.88.88,0,0,1,.39.83,1.22,1.22,0,0,1-.61.92,11.11,11.11,0,0,1-4.19,1,9.52,9.52,0,0,1-4.27-.84c-1.47-.81-2.21-2.29-2.21-4.42a10.49,10.49,0,0,1,.08-1.37l.76-3.58a3.51,3.51,0,0,0-3.74-4.34q-4.64,0-4.64,5.71V103c0,2.49,0,4,.07,4.42a2.44,2.44,0,0,0,1,1.75l1.18.61a.67.67,0,0,1,.42.84c-.3.76-1.32,1.63-3,2.59a10.4,10.4,0,0,1-4,.69h-1.06a5.38,5.38,0,0,1-4.19-2.18,8.37,8.37,0,0,1-1.83-5.6v-21a5.93,5.93,0,0,0-.69-3A9.15,9.15,0,0,0,150.31,81a1.91,1.91,0,0,1-.83-1.44q0-1.45,3.81-3.51c2.38-1.32,4.24-2,5.56-2,2.08,0,3.43,1.25,4,3.73q3.57-4,9.75-4a9,9,0,0,1,6.59,2.74,8.69,8.69,0,0,1,2.7,6.25,10,10,0,0,1-.07,1.22l-.61,2.74q-.39,1.6-.54,2.67A3.63,3.63,0,0,0,182.08,93.32Z"/><path class="cls-1" d="M202.12,61.93A7.29,7.29,0,1,1,200,56.75,7.06,7.06,0,0,1,202.12,61.93Zm2.13,48.68c-.3.76-1.32,1.63-3,2.59a10.38,10.38,0,0,1-4,.69h-1.07a5.38,5.38,0,0,1-4.19-2.18,8.37,8.37,0,0,1-1.83-5.6v-22a6,6,0,0,0-.67-3A9,9,0,0,0,188.31,80a1.93,1.93,0,0,1-.82-1.45c0-1,1.27-2.13,3.79-3.5s4.22-2,5.53-2c2.08,0,3.41,1.24,4,3.73a60.26,60.26,0,0,1,.76,10.14V103c0,2.49,0,4,.07,4.42a2.51,2.51,0,0,0,1,1.75l1.19.61A.67.67,0,0,1,204.25,110.61Z"/><path class="cls-1" d="M246.69,74.34a5.79,5.79,0,0,1,.3,2.06q0,5.64-6.09,20.34-4.65,11.06-9.45,20.19-7.69,14.32-16,14.33a9.88,9.88,0,0,1-2.36-.31c-1.52-.35-2.28-2.62-2.28-6.78,0-3.1.5-4.47,1.52-4.11a13.63,13.63,0,0,0,4.49.84,10.42,10.42,0,0,0,6.25-2,9,9,0,0,0,3.43-4.19c.15-.35.1-.61-.15-.76h-.16a1.14,1.14,0,0,0-.3-.07q-2.74,0-6-8.69l-7.69-20.27a21.43,21.43,0,0,0-1.37-2.81,4.76,4.76,0,0,0-1.19-1.07,2.06,2.06,0,0,1-1-1.52c0-1,1.29-2.16,3.88-3.59s4.33-2,5.65-2q2.51,0,4,3.81,2.36,5.94,9.27,25.91a81.48,81.48,0,0,0,4.12-13,39.32,39.32,0,0,0,1.15-9.52,18.11,18.11,0,0,0-.92-6.4c-.2-.56.28-1,1.45-1.34a15.26,15.26,0,0,1,4.12-.49Q246,72.9,246.69,74.34Z"/><path class="cls-1" d="M285.24,110.69c-.36.86-1.37,1.7-3.05,2.51a8.55,8.55,0,0,1-4,.76h-.69a5.53,5.53,0,0,1-5-3.2q-3.27,3.21-9.07,3.2a12.87,12.87,0,0,1-9.33-3.77,12.48,12.48,0,0,1-3.85-9.26,12,12,0,0,1,4.19-9.22,14.11,14.11,0,0,1,9.76-3.8q5.1,0,7.23,1.21V86.31c0-4-1.54-6-4.64-6a6.19,6.19,0,0,0-4.08,1.9,6.14,6.14,0,0,1-4,1.91,5.52,5.52,0,0,1-4.65-2.21,5.77,5.77,0,0,1-1.29-3.58c0-2.85.51-4.27,1.52-4.27a6.19,6.19,0,0,1,2.52.88,8.8,8.8,0,0,0,4.11.87,16,16,0,0,0,4.84-.87,18.08,18.08,0,0,1,5.67-.88,10.5,10.5,0,0,1,7.39,2.9,12.1,12.1,0,0,1,3.66,9.29v16.91c0,2.54,0,4,.08,4.42a2.41,2.41,0,0,0,1,1.68l1.22.61C285.26,110.05,285.39,110.33,285.24,110.69Zm-13.72-4.42V94a7.41,7.41,0,0,0-3.58-.68,6,6,0,0,0-4.57,2.2,7.64,7.64,0,0,0-2,5.26,8,8,0,0,0,1.6,5.14,5.08,5.08,0,0,0,4.19,2A5.3,5.3,0,0,0,271.52,106.27Z"/><path class="cls-1" d="M42.47,28.13S19,40.31,0,6.11c0,0,34.74-21.44,47.76,16,0,0-8.37-8.41-27-11.32,0,0,20.51,8.41,21.74,17.32"/><path class="cls-2" d="M31.09,14.4c18.27,11,28.43,36,23.55,62.61S31.35,123.4,10.38,127.16c24.16,2.2,47.38-18.77,52.85-48.58S54.45,20.92,31.09,14.4"/><path class="cls-2" d="M113.11,45c-23.85,3-42.25,17.08-43.85,35.44s14.09,35.38,37.06,42.5C78.09,119,57.21,100.19,59,79.59S84.63,44.05,113.11,45"/><path class="cls-1" d="M87.06,32.61A11.33,11.33,0,1,1,75.73,21.28,11.33,11.33,0,0,1,87.06,32.61"/></g></g></svg>