<svg xmlns="http://www.w3.org/2000/svg" viewBox="0 0 76.27 46.52"><defs><style>.cls-1{fill:#4b721d;}</style></defs><title>OMRI</title><g id="Layer_2" data-name="Layer 2"><g id="Layer_1-2" data-name="Layer 1"><polygon class="cls-1" points="28.47 41.88 30.64 41.88 30.64 42.53 29.27 42.53 29.27 43.34 30.55 43.34 30.55 44 29.27 44 29.27 45.42 28.47 45.42 28.47 41.88"/><path class="cls-1" d="M33.78,44.11a1.29,1.29,0,0,1-1.36,1.37,1.26,1.26,0,0,1-1.33-1.33,1.29,1.29,0,0,1,1.38-1.36,1.25,1.25,0,0,1,1.31,1.32m-1.86,0c0,.44.18.77.53.77s.51-.3.51-.77-.15-.77-.51-.77-.53.39-.53.77"/><path class="cls-1" d="M34.3,43.69c0-.37,0-.62,0-.84H35l0,.47h0a.76.76,0,0,1,.69-.53h.17v.75l-.21,0a.51.51,0,0,0-.55.41.9.9,0,0,0,0,.18v1.3h-.8Z"/><path class="cls-1" d="M40.69,43.61A1.69,1.69,0,0,1,39,45.48a1.66,1.66,0,0,1-1.67-1.81A1.71,1.71,0,0,1,39,41.82a1.65,1.65,0,0,1,1.68,1.79m-2.56,0c0,.69.33,1.18.86,1.18s.85-.51.85-1.2-.3-1.19-.85-1.19-.86.52-.86,1.21"/><path class="cls-1" d="M41.22,43.69c0-.37,0-.62,0-.84h.69l0,.47h0a.77.77,0,0,1,.7-.53h.17v.75l-.22,0a.51.51,0,0,0-.54.41.5.5,0,0,0,0,.18v1.3h-.8Z"/><path class="cls-1" d="M45.7,42.85c0,.16,0,.38,0,.76v1.44a1.49,1.49,0,0,1-.39,1.16,1.58,1.58,0,0,1-1,.31,2,2,0,0,1-.93-.2l.16-.6a1.6,1.6,0,0,0,.74.19.61.61,0,0,0,.67-.68v-.17h0a.81.81,0,0,1-.69.34,1.13,1.13,0,0,1-1.09-1.26,1.23,1.23,0,0,1,1.17-1.35.77.77,0,0,1,.7.36h0l0-.3Zm-.82,1a.66.66,0,0,0,0-.15.44.44,0,0,0-.44-.35c-.28,0-.52.26-.52.73s.19.68.52.68a.45.45,0,0,0,.43-.33.68.68,0,0,0,0-.21Z"/><path class="cls-1" d="M47.81,45.42l0-.26h0a.92.92,0,0,1-.74.32.79.79,0,0,1-.83-.79c0-.67.6-1,1.51-1v0c0-.14-.07-.33-.47-.33a1.52,1.52,0,0,0-.71.19L46.37,43a2.08,2.08,0,0,1,1-.23A1,1,0,0,1,48.5,43.9v.89a5.18,5.18,0,0,0,0,.63Zm-.09-1.21c-.42,0-.75.09-.75.4a.3.3,0,0,0,.32.31.44.44,0,0,0,.41-.3.59.59,0,0,0,0-.14Z"/><path class="cls-1" d="M49.16,43.67c0-.32,0-.6,0-.82h.7l0,.35h0a1,1,0,0,1,.8-.41c.52,0,.92.35.92,1.11v1.52h-.8V44c0-.34-.12-.56-.41-.56a.42.42,0,0,0-.4.3.53.53,0,0,0,0,.2v1.48h-.8Z"/><path class="cls-1" d="M53.09,42.13a.43.43,0,0,1-.85,0,.43.43,0,0,1,.85,0m-.82.72h.8v2.57h-.8Z"/><path class="cls-1" d="M55.67,45.36a2.13,2.13,0,0,1-.72.11,1.24,1.24,0,0,1-1.36-1.31,1.34,1.34,0,0,1,1.47-1.37,2,2,0,0,1,.61.1l-.13.59a1.11,1.11,0,0,0-.44-.07.72.72,0,0,0,0,1.44,1.41,1.41,0,0,0,.46-.08Z"/><path class="cls-1" d="M58.05,41.87v2.05c0,.61.23.92.64.92s.65-.3.65-.92V41.87h.8v2c0,1.1-.55,1.62-1.47,1.62s-1.43-.5-1.43-1.63v-2Z"/><path class="cls-1" d="M60.83,44.72a1.6,1.6,0,0,0,.69.2c.24,0,.35-.09.35-.22s-.08-.2-.38-.3c-.53-.17-.74-.46-.74-.77,0-.48.42-.84,1-.84a1.73,1.73,0,0,1,.73.15l-.14.55a1.34,1.34,0,0,0-.56-.15c-.2,0-.31.08-.31.21s.1.19.42.3c.49.17.69.41.7.79s-.38.83-1.12.83a1.79,1.79,0,0,1-.83-.18Z"/><path class="cls-1" d="M63.76,44.39c0,.33.36.49.73.49a2.2,2.2,0,0,0,.71-.11l.11.54a2.49,2.49,0,0,1-.93.16A1.23,1.23,0,0,1,63,44.16a1.29,1.29,0,0,1,1.3-1.37,1.14,1.14,0,0,1,1.15,1.28,1.91,1.91,0,0,1,0,.32Zm.95-.55a.47.47,0,0,0-.46-.52.53.53,0,0,0-.49.52Z"/><path class="cls-1" d="M74.29,5.3h0c-1.2,0-2,.67-2,1.69v.2c0,1,.78,1.68,2,1.68h0c1.19,0,2-.66,2-1.68V7a1.74,1.74,0,0,0-2-1.69M76,7.19c0,.83-.65,1.39-1.68,1.39h0c-1,0-1.68-.56-1.68-1.39V7c0-.84.64-1.4,1.68-1.4h0c1,0,1.68.56,1.68,1.4Z"/><path class="cls-1" d="M74.39,6.11h-.7s-.09,0-.09.1V7.88c0,.08,0,.1.09.1h.13c.05,0,.09,0,.09-.1V7.43c0-.07,0-.1.13-.1h.29a.09.09,0,0,1,.1.06l.25.53s0,.06.08.06h.18c.1,0,.14-.06.09-.14l-.29-.51s0-.08,0-.09a.52.52,0,0,0,.31-.46v0a.61.61,0,0,0-.68-.63m.36.63c0,.2-.13.32-.36.32H74c-.11,0-.13,0-.13-.1V6.49c0-.07,0-.11.13-.11h.35a.32.32,0,0,1,.36.33Z"/><path class="cls-1" d="M64.05,34.06a1.67,1.67,0,0,0-1.86-1.86,2.74,2.74,0,0,0-.61,0V36.1a3.39,3.39,0,0,0,.47,0,1.83,1.83,0,0,0,2-2.06"/><polygon class="cls-1" points="41.45 27.44 41.45 9.51 41.32 9.51 33.19 19.41 24.97 9.51 24.84 9.51 24.84 27.44 27.34 27.44 27.34 16.05 33.07 23.2 33.19 23.2 38.94 16.05 38.94 27.44 41.45 27.44"/><path class="cls-1" d="M56.49,16.59c0-4.05-2.56-6.71-7.19-6.71H45V27.44h2.65V23.26H49.3a9.22,9.22,0,0,0,1.21-.08l2.88,4.26h3.15l-3.42-5a6.1,6.1,0,0,0,3.37-5.87M49.2,20.88H47.64V12.33H49.2c3.22,0,4.56,1.6,4.56,4.26s-1.31,4.29-4.56,4.29"/><polygon class="cls-1" points="59.49 25.73 59.49 27.65 65.45 27.65 65.45 25.73 63.82 25.73 63.82 11.79 65.47 11.79 65.47 9.87 59.52 9.87 59.52 11.79 61.16 11.79 61.16 25.73 59.49 25.73"/><path class="cls-1" d="M13.22,27.67a8.71,8.71,0,0,0,8.7-9,8.7,8.7,0,1,0-17.39,0,8.7,8.7,0,0,0,8.69,9m0-15.52c3.5,0,6,2.79,6,6.51s-2.45,6.51-6,6.51-5.94-2.79-5.94-6.51,2.45-6.51,5.94-6.51"/><path class="cls-1" d="M64,3.9H30.45A2.63,2.63,0,0,0,30,3.33,9.14,9.14,0,0,0,28.47,2,3.4,3.4,0,0,0,27,1.24a.51.51,0,0,0-.32.1.5.5,0,0,0-.19.37v.05a1.83,1.83,0,0,0,.69,1.11l.19.2.53.49.39.36c-.47,0-1.19,0-2.12-.06a3.29,3.29,0,0,0-.3-.46A8.81,8.81,0,0,0,24.46,2L24.36,2a2.56,2.56,0,0,0-1.24-.66.49.49,0,0,0-.47.4.22.22,0,0,0,0,.09,1.36,1.36,0,0,0,.35.78h0a11.47,11.47,0,0,0,.81.91l.18.19.06.07c-.71,0-1.47-.1-2.24-.17a5.5,5.5,0,0,0-.94-1.41,8.18,8.18,0,0,0-.78-.78.39.39,0,0,0-.1-.08A1,1,0,0,0,19.36,1a.45.45,0,0,0-.42.31.78.78,0,0,0,0,.16,2.57,2.57,0,0,0,.6,1.2c.05.07.1.15.16.22l.11.15c.1.14.2.28.29.39l-2.39-.25a4.74,4.74,0,0,0-.78-1.26,7.63,7.63,0,0,0-.64-.7l-.09-.08a1,1,0,0,0-.53-.28.37.37,0,0,0-.36.27.36.36,0,0,0,0,.15,2.28,2.28,0,0,0,.48,1.06l.12.17.05.08c.07.11.14.22.21.31-.76-.15-1.46-.32-2.07-.48a3.61,3.61,0,0,0-.63-1.16,5.43,5.43,0,0,0-.51-.59.46.46,0,0,0-.07-.07.69.69,0,0,0-.44-.24h0a.32.32,0,0,0-.28.21.4.4,0,0,0,0,.15,2.07,2.07,0,0,0,.38.89l.08.14L12.7,2c-.46-.16-.85-.32-1.2-.48A6.39,6.39,0,0,0,8.6,0a.36.36,0,0,0-.32.14.31.31,0,0,0,0,.32A4.91,4.91,0,0,0,11.21,2a13.15,13.15,0,0,0,1.31.53l-.39.2a5,5,0,0,0-.54.29l-.08.05a.61.61,0,0,0-.29.32.54.54,0,0,0,0,.08.32.32,0,0,0,.2.28.58.58,0,0,0,.18,0,4.78,4.78,0,0,0,1.32-.31l0,0A2.89,2.89,0,0,0,13.88,3c.63.17,1.32.33,2.08.49l-.54.3c-.22.12-.45.25-.64.38l-.09.06a.76.76,0,0,0-.33.39h0s0,0,0,.08a.35.35,0,0,0,.22.32.53.53,0,0,0,.21,0,5.22,5.22,0,0,0,1.58-.43l.1,0a2.68,2.68,0,0,0,1.2-.77c.65.11,1.33.21,2,.31l-.46.28a7.44,7.44,0,0,0-.72.47l-.11.08a.84.84,0,0,0-.36.47l0,.07h0a.41.41,0,0,0,.23.36.86.86,0,0,0,.24.05,6.28,6.28,0,0,0,1.82-.57l.13-.06a3.55,3.55,0,0,0,1.32-.9c.76.09,1.51.16,2.24.22l-.64.51c-.24.19-.52.41-.74.61l-.1.11a.88.88,0,0,0-.32.49h0v.05h0v0a.44.44,0,0,0,.21.37.46.46,0,0,0,.26.07,5.59,5.59,0,0,0,2-.85,7.06,7.06,0,0,0,1-.71,2.2,2.2,0,0,0,.51-.55c.68,0,1.32.06,1.87.07-.17.16-.36.34-.55.5s-.53.5-.74.72a.63.63,0,0,1-.1.12,1.06,1.06,0,0,0-.32.63.5.5,0,0,0,.19.38.52.52,0,0,0,.3.09,2.33,2.33,0,0,0,.88-.31l0,0a12.49,12.49,0,0,0,1.72-1.14l.08-.07a3.57,3.57,0,0,0,.93-1H64a5.55,5.55,0,0,1,5.53,5.53V29H.76V10.2A5.55,5.55,0,0,1,6.3,4.67h0V3.9h0A6.31,6.31,0,0,0,0,10.2V32.86a6.31,6.31,0,0,0,6.3,6.3H64a6.3,6.3,0,0,0,6.29-6.3V10.2A6.3,6.3,0,0,0,64,3.9m-3.7,27.41a10.41,10.41,0,0,1,1.79-.13,3.74,3.74,0,0,1,2.41.61,2.61,2.61,0,0,1,1,2.23,3,3,0,0,1-1,2.38,4.21,4.21,0,0,1-2.72.76,10.27,10.27,0,0,1-1.51-.09Zm-11.45-.09h3.62v1.09h-2.3v1.22H52.3v1.08H50.13V36h2.42V37.1H48.81Zm-12,0h4.52v1.12h-1.6V37.1H38.36V32.34H36.77Zm-9.6,3.42c-1-.35-1.62-.89-1.62-1.75,0-1,.85-1.77,2.22-1.77a3.32,3.32,0,0,1,1.5.3L29,32.48a2.85,2.85,0,0,0-1.22-.27c-.58,0-.86.27-.86.56s.32.54,1.09.84c1,.38,1.52.93,1.52,1.76,0,1-.75,1.83-2.36,1.83a3.86,3.86,0,0,1-1.67-.37l.27-1.09a3.41,3.41,0,0,0,1.47.37c.61,0,.94-.26.94-.65s-.28-.58-1-.82M16.43,31.22h1.32V37.1H16.43Zm-11.26,0H6.5V36H8.83V37.1H5.17Z"/></g></g></svg>